<?xml version="1.0" standalone="no"?>
<!DOCTYPE svg PUBLIC "-//W3C//DTD SVG 20010904//EN"
 "http://www.w3.org/TR/2001/REC-SVG-20010904/DTD/svg10.dtd">
<svg version="1.0" xmlns="http://www.w3.org/2000/svg"
 width="660.000000pt" height="450.000000pt" viewBox="0 0 660.000000 450.000000"
 preserveAspectRatio="xMidYMid meet">
<metadata>
Created by potrace 1.13, written by Peter Selinger 2001-2015
</metadata>
<g transform="translate(0.000000,450.000000) scale(0.100000,-0.100000)"
fill="#000000" stroke="none">
<path d="M5847 4451 c-83 -9 -111 -28 -149 -102 -35 -66 -85 -298 -122 -569
-68 -481 -129 -692 -316 -1075 -72 -147 -178 -403 -300 -725 -206 -543 -296
-720 -398 -783 -59 -37 -265 -103 -407 -131 -486 -96 -768 -132 -1300 -166
-282 -18 -422 -20 -1542 -20 -760 0 -1233 -4 -1233 -9 0 -6 -12 -112 -26 -237
-14 -125 -23 -237 -20 -249 12 -48 53 -71 213 -123 210 -68 372 -105 642 -147
l224 -35 466 0 c256 0 583 5 726 11 143 5 519 14 835 19 617 9 650 11 965 71
222 42 302 81 570 279 321 237 520 439 875 888 80 101 158 202 175 225 16 23
84 116 151 207 66 91 136 188 154 215 19 28 61 82 93 120 65 78 148 233 194
365 17 47 49 164 72 260 23 96 50 207 61 245 11 39 31 135 46 215 24 131 26
160 21 310 -5 136 -11 188 -36 293 -74 311 -138 482 -212 562 -69 75 -104 88
-239 91 -63 1 -146 -1 -183 -5z"/>
</g>
</svg>
