<?xml version="1.0" encoding="UTF-8" standalone="no"?>
<svg
   xmlns:dc="http://purl.org/dc/elements/1.1/"
   xmlns:cc="http://creativecommons.org/ns#"
   xmlns:rdf="http://www.w3.org/1999/02/22-rdf-syntax-ns#"
   xmlns:svg="http://www.w3.org/2000/svg"
   xmlns="http://www.w3.org/2000/svg"
   xmlns:sodipodi="http://sodipodi.sourceforge.net/DTD/sodipodi-0.dtd"
   xmlns:inkscape="http://www.inkscape.org/namespaces/inkscape"
   version="1.0"
   width="170.000000pt"
   height="225.000000pt"
   viewBox="0 0 170.000000 225.000000"
   preserveAspectRatio="xMidYMid meet"
   id="svg2"
   inkscape:version="0.48.4 r9939"
   sodipodi:docname="dark_yellow.svg">
  <defs
     id="defs12" />
  <sodipodi:namedview
     pagecolor="#ffffff"
     bordercolor="#666666"
     borderopacity="1"
     objecttolerance="10"
     gridtolerance="10"
     guidetolerance="10"
     inkscape:pageopacity="0"
     inkscape:pageshadow="2"
     inkscape:window-width="640"
     inkscape:window-height="480"
     id="namedview10"
     showgrid="false"
     inkscape:zoom="0.83911111"
     inkscape:cx="106.25"
     inkscape:cy="140.625"
     inkscape:window-x="75"
     inkscape:window-y="34"
     inkscape:window-maximized="0"
     inkscape:current-layer="svg2" />
  <metadata
     id="metadata4">
Created by potrace 1.13, written by Peter Selinger 2001-2015
<rdf:RDF>
  <cc:Work
     rdf:about="">
    <dc:format>image/svg+xml</dc:format>
    <dc:type
       rdf:resource="http://purl.org/dc/dcmitype/StillImage" />
  </cc:Work>
</rdf:RDF>
</metadata>
  <g
     transform="translate(0.000000,225.000000) scale(0.100000,-0.100000)"
     fill="#000000"
     stroke="none"
     id="g6">
    <path
       d="m 0,0 z m 1519,2133 c 58,-42 112,-83 119,-91 21,-27 16,-273 -8,-357 -11,-38 -20,-94 -20,-123 0,-29 -12,-108 -26,-175 -15,-71 -29,-181 -34,-262 C 1537,908 1471,682 1381,546 1321,455 1268,355 1240,278 1211,200 1193,180 1102,127 980,56 942,47 798,52 678,57 672,58 553,107 430,157 382,187 282,275 234,316 212,348 143,480 97,565 55,651 48,670 c -17,53 -4,563 17,655 41,176 117,346 214,480 63,87 194,223 263,273 77,56 147,85 273,112 74,15 135,19 344,19 l 253,1 z"
       id="path8"
       inkscape:connector-curvature="0"
       sodipodi:nodetypes="cccccsccccccccccccccccc" />
  </g>
</svg>
