<?xml version="1.0" standalone="no"?>
<!DOCTYPE svg PUBLIC "-//W3C//DTD SVG 20010904//EN"
 "http://www.w3.org/TR/2001/REC-SVG-20010904/DTD/svg10.dtd">
<svg version="1.0" xmlns="http://www.w3.org/2000/svg"
 width="289.000000pt" height="240.000000pt" viewBox="0 0 289.000000 240.000000"
 preserveAspectRatio="xMidYMid meet">
<metadata>
Created by potrace 1.13, written by Peter Selinger 2001-2015
</metadata>
<g transform="translate(0.000000,240.000000) scale(0.100000,-0.100000)"
fill="#000000" stroke="none">
<path d="M2203 2380 c-57 -10 -129 -26 -160 -35 -32 -10 -148 -37 -258 -61
-110 -24 -274 -64 -365 -89 -91 -25 -199 -50 -240 -56 -41 -6 -118 -24 -170
-41 -98 -31 -361 -157 -440 -211 -67 -46 -204 -191 -266 -282 -30 -44 -86
-123 -124 -175 -138 -191 -170 -267 -170 -404 0 -112 14 -145 100 -245 34 -39
87 -120 119 -179 31 -59 63 -118 71 -131 25 -39 180 -159 265 -203 115 -60
200 -115 279 -180 78 -66 124 -82 212 -75 79 6 156 47 247 130 67 61 69 64 88
142 24 101 26 358 4 450 -10 41 -14 118 -15 245 l0 185 40 71 c28 50 54 83 87
107 66 48 254 140 334 164 79 24 164 80 256 168 37 36 93 82 123 102 30 20 64
44 75 53 55 48 272 119 365 120 49 1 139 40 161 70 22 30 68 286 61 343 l-4
37 -287 -1 c-229 -1 -306 -5 -388 -19z"/>
</g>
</svg>
