<svg version="1.0" xmlns="http://www.w3.org/2000/svg"
 width="363.000000pt" height="116.000000pt" viewBox="0 0 363.000000 116.000000"
 preserveAspectRatio="xMidYMid meet">
<g transform="translate(0.000000,116.000000) scale(0.100000,-0.100000)"
fill="#000000" stroke="none">
<path d="M158 1143 c-40 -47 -102 -151 -109 -182 -4 -20 -17 -72 -29 -116 -33
-120 -25 -192 31 -291 26 -45 65 -95 94 -120 l50 -44 85 0 c47 0 143 7 215 15
222 24 425 37 484 30 31 -3 94 -17 141 -30 47 -13 117 -31 155 -40 39 -8 129
-33 200 -54 263 -79 300 -84 690 -92 401 -7 338 4 738 -131 l267 -90 123 4
c107 3 129 7 180 31 81 37 133 81 147 123 14 40 6 163 -15 259 -13 56 -19 65
-85 125 -40 36 -132 120 -205 187 -174 160 -257 203 -519 272 -194 52 -301 76
-381 86 -27 4 -93 15 -145 26 -252 49 -244 49 -1198 49 -844 0 -900 -1 -914
-17z"/>
</g>
</svg>
