<?xml version="1.0" encoding="UTF-8" standalone="no"?>
<svg
   xmlns:dc="http://purl.org/dc/elements/1.1/"
   xmlns:cc="http://creativecommons.org/ns#"
   xmlns:rdf="http://www.w3.org/1999/02/22-rdf-syntax-ns#"
   xmlns:svg="http://www.w3.org/2000/svg"
   xmlns="http://www.w3.org/2000/svg"
   xmlns:sodipodi="http://sodipodi.sourceforge.net/DTD/sodipodi-0.dtd"
   xmlns:inkscape="http://www.inkscape.org/namespaces/inkscape"
   version="1.0"
   width="230.000000pt"
   height="130.000000pt"
   viewBox="0 0 230.000000 130.000000"
   preserveAspectRatio="xMidYMid meet"
   id="svg2"
   inkscape:version="0.48.4 r9939"
   sodipodi:docname="mauve.svg">
  <defs
     id="defs12" />
  <sodipodi:namedview
     pagecolor="#ffffff"
     bordercolor="#666666"
     borderopacity="1"
     objecttolerance="10"
     gridtolerance="10"
     guidetolerance="10"
     inkscape:pageopacity="0"
     inkscape:pageshadow="2"
     inkscape:window-width="640"
     inkscape:window-height="480"
     id="namedview10"
     showgrid="false"
     inkscape:zoom="0.94316065"
     inkscape:cx="179.14972"
     inkscape:cy="110.97195"
     inkscape:window-x="498"
     inkscape:window-y="132"
     inkscape:window-maximized="0"
     inkscape:current-layer="g6" />
  <metadata
     id="metadata4">
Created by potrace 1.13, written by Peter Selinger 2001-2015
<rdf:RDF>
  <cc:Work
     rdf:about="">
    <dc:format>image/svg+xml</dc:format>
    <dc:type
       rdf:resource="http://purl.org/dc/dcmitype/StillImage" />
    <dc:title></dc:title>
  </cc:Work>
</rdf:RDF>
</metadata>
  <g
     transform="translate(0.000000,130.000000) scale(0.100000,-0.100000)"
     fill="#000000"
     stroke="none"
     id="g6">
    <path
       d="m 0,0 z m 1515,1187 c 44,-18 96,-44 116,-57 118,-80 186,-135 284,-229 61,-58 143,-137 183,-174 61,-59 72,-74 72,-102 0,-19 20,-91 45,-161 25,-69 45,-132 45,-138 0,-19 -59,-104 -99,-143 -38,-37 -86,-61 -196,-98 -130,-43 -175,-47 -471,-43 -271,5 -282,6 -369,33 -152,47 -162,48 -455,56 -320,8 -401,17 -434,48 -76.57431,74.72655 -22.4152,23.92021 -71,74 -22,23 -55,70 -72,104 -31,57 -33,67 -33,159 0,55 3,109 6,121 6,21 52,54 194,138 69,41 164,113 270,207 36,32 86,76 113,99 131.1317,106.825 38.47809,45.7154 125,101 46,28 118,34 432,36 l 236,2 z"
       id="path8"
       inkscape:connector-curvature="0"
       sodipodi:nodetypes="ccccccscsccccccccscccccccc" />
  </g>
</svg>
