<?xml version="1.0" encoding="UTF-8" standalone="no"?>
<svg
   xmlns:dc="http://purl.org/dc/elements/1.1/"
   xmlns:cc="http://creativecommons.org/ns#"
   xmlns:rdf="http://www.w3.org/1999/02/22-rdf-syntax-ns#"
   xmlns:svg="http://www.w3.org/2000/svg"
   xmlns="http://www.w3.org/2000/svg"
   xmlns:sodipodi="http://sodipodi.sourceforge.net/DTD/sodipodi-0.dtd"
   xmlns:inkscape="http://www.inkscape.org/namespaces/inkscape"
   version="1.0"
   width="170.000000pt"
   height="345.000000pt"
   viewBox="0 0 170.000000 345.000000"
   preserveAspectRatio="xMidYMid meet"
   id="svg2"
   inkscape:version="0.48.4 r9939"
   sodipodi:docname="red.svg">
  <defs
     id="defs12" />
  <sodipodi:namedview
     pagecolor="#ffffff"
     bordercolor="#666666"
     borderopacity="1"
     objecttolerance="10"
     gridtolerance="10"
     guidetolerance="10"
     inkscape:pageopacity="0"
     inkscape:pageshadow="2"
     inkscape:window-width="640"
     inkscape:window-height="480"
     id="namedview10"
     showgrid="false"
     inkscape:zoom="0.54724638"
     inkscape:cx="106.25"
     inkscape:cy="215.625"
     inkscape:window-x="75"
     inkscape:window-y="34"
     inkscape:window-maximized="0"
     inkscape:current-layer="svg2" />
  <metadata
     id="metadata4">
Created by potrace 1.13, written by Peter Selinger 2001-2015
<rdf:RDF>
  <cc:Work
     rdf:about="">
    <dc:format>image/svg+xml</dc:format>
    <dc:type
       rdf:resource="http://purl.org/dc/dcmitype/StillImage" />
  </cc:Work>
</rdf:RDF>
</metadata>
  <g
     transform="translate(0.000000,345.000000) scale(0.100000,-0.100000)"
     fill="#000000"
     stroke="none"
     id="g6">
    <path
       d="m 0,0 z m 1349,3365 c 26,-46 40,-59 84,-79 84,-38 134,-80 147,-123 50,-172 91,-514 71,-593 -6,-25 -17,-144 -26,-265 -8,-121 -22,-272 -30,-335 -8,-63 -20,-151 -26,-195 -6,-44 -21,-112 -34,-150 -13,-39 -38,-132 -54,-207 -38,-171 -87,-351 -105,-386 -7,-15 -19,-45 -26,-66 -7,-22 -61,-116 -120,-210 C 973,346 934,297 775,187 582,53 508,30 275,31 83,31 50,40 37,90 c -5,19 -7,132 -4,250 7,300 44,461 131,558 99,112 220,278 269,369 30,54 76,136 102,183 84,146 87,160 93,381 4,169 2,204 -13,249 -15,44 -16,77 -12,209 7,203 22,345 42,406 24,72 124,269 178,350 96,144 166,239 215,290 44,46 60,55 114,68 35,8 86,15 115,16 l 51,1 z"
       id="path8"
       inkscape:connector-curvature="0"
       sodipodi:nodetypes="cccccccssccccccccccccccccsccccc" />
  </g>
</svg>
