<?xml version="1.0" standalone="no"?>
<!DOCTYPE svg PUBLIC "-//W3C//DTD SVG 20010904//EN"
 "http://www.w3.org/TR/2001/REC-SVG-20010904/DTD/svg10.dtd">
<svg version="1.0" xmlns="http://www.w3.org/2000/svg"
 width="355.000000pt" height="284.000000pt" viewBox="0 0 355.000000 284.000000"
 preserveAspectRatio="xMidYMid meet">
<metadata>
Created by potrace 1.13, written by Peter Selinger 2001-2015
</metadata>
<g transform="translate(0.000000,284.000000) scale(0.100000,-0.100000)"
fill="#000000" stroke="none">
<path d="M2819 2826 c-2 -2 -56 -11 -119 -20 -169 -25 -233 -42 -340 -90 -52
-23 -147 -60 -210 -80 -63 -21 -170 -63 -238 -92 -68 -30 -169 -73 -225 -95
-197 -78 -320 -169 -493 -364 -236 -267 -582 -753 -635 -894 -11 -31 -30 -92
-41 -136 -82 -331 -103 -383 -180 -431 -93 -59 -162 -84 -247 -91 -77 -6 -82
-7 -77 -27 2 -12 17 -99 32 -195 l27 -175 46 -48 c41 -43 49 -48 91 -48 25 -1
63 -7 85 -15 56 -21 275 -20 341 0 27 9 65 21 84 27 44 14 100 51 215 143 50
39 117 90 150 112 70 48 152 123 187 173 29 41 81 174 139 355 54 171 160 377
272 530 48 66 119 164 158 218 39 53 103 125 141 160 39 34 103 92 142 128
166 154 261 230 323 261 57 28 79 33 157 36 50 2 127 -1 171 -6 73 -10 83 -14
108 -44 48 -56 60 -89 65 -174 5 -97 -3 -127 -96 -334 -77 -170 -81 -203 -36
-271 16 -24 51 -57 78 -74 43 -26 61 -30 135 -34 47 -2 108 2 137 8 45 10 61
22 121 84 119 124 202 279 245 457 22 95 1 434 -35 537 -31 89 -210 293 -377
428 -95 77 -116 85 -213 85 -46 0 -86 -2 -88 -4z"/>
</g>
</svg>
